<!-- Generated by IcoMoon.io -->
<svg version="1.1" xmlns="http://www.w3.org/2000/svg" width="1809" height="1024" viewBox="0 0 1809 1024">
<title>smartphone</title>
<g id="icomoon-ignore">
</g>
<path fill="#afb1b8" d="M621.329 837.99c0.273 0 0.546 0.068 0.785 0.171 0.257 0.099 0.478 0.238 0.667 0.411l-0.001-0.001 3.721 3.55c-2.901 2.884-6.468 5.188-10.479 6.758-4.13 1.542-8.902 2.435-13.882 2.435-0.34 0-0.678-0.004-1.016-0.012l0.050 0.001c-4.779 0.085-9.523-0.683-13.943-2.27-4.083-1.48-7.589-3.651-10.549-6.401l0.019 0.018c-2.864-2.715-5.158-6-6.705-9.677l-0.070-0.188c-1.513-3.642-2.391-7.872-2.391-12.308 0-0.125 0.001-0.25 0.002-0.375v0.019c-0.005-0.194-0.007-0.422-0.007-0.651 0-8.691 3.768-16.502 9.759-21.888l0.027-0.024c3.174-2.782 6.98-4.966 11.162-6.434 4.591-1.536 9.472-2.304 14.387-2.253 0.264-0.006 0.575-0.010 0.887-0.010 4.46 0 8.744 0.754 12.731 2.14l-0.272-0.082c3.686 1.399 7.066 3.328 10.018 5.717l-3.123 3.789c-0.22 0.269-0.48 0.496-0.772 0.675l-0.013 0.008c-0.311 0.187-0.686 0.297-1.087 0.297-0.062 0-0.124-0.003-0.184-0.008l0.008 0.001c-0.505-0.023-0.972-0.166-1.38-0.4l0.015 0.008-1.655-1.024-2.338-1.297c-2.127-1.037-4.595-1.824-7.189-2.233l-0.15-0.019c-1.545-0.262-3.326-0.412-5.141-0.412-0.143 0-0.285 0.001-0.427 0.003h0.022c-0.101-0.001-0.22-0.002-0.339-0.002-3.579 0-7.012 0.626-10.195 1.775l0.209-0.066c-3.136 1.103-5.835 2.73-8.128 4.797l0.021-0.019c-2.321 2.185-4.096 4.779-5.257 7.595-1.2 2.86-1.897 6.184-1.897 9.67 0 0.122 0.001 0.244 0.003 0.366v-0.018c-0.002 0.124-0.003 0.27-0.003 0.416 0 3.522 0.697 6.881 1.961 9.946l-0.063-0.174c1.143 2.799 2.901 5.359 5.171 7.561 2.133 2.048 4.779 3.669 7.731 4.693 3.038 1.092 6.281 1.638 9.574 1.621 1.894 0.017 3.806-0.085 5.683-0.324 4.736-0.488 8.956-2.381 12.319-5.249l-0.031 0.026c0.477-0.389 1.088-0.63 1.754-0.648h0.004zM728.815 820.122c0.001 0.112 0.002 0.245 0.002 0.378 0 4.41-0.924 8.603-2.589 12.398l0.078-0.198c-1.652 3.854-4.023 7.112-6.97 9.738l-0.027 0.024c-3.089 2.749-6.753 4.928-10.782 6.331l-0.226 0.069c-4.224 1.436-9.089 2.265-14.148 2.265s-9.925-0.829-14.468-2.359l0.32 0.093c-4.221-1.502-7.854-3.69-10.954-6.462l0.031 0.028c-2.981-2.699-5.375-5.985-7.010-9.682l-0.072-0.183c-1.588-3.718-2.511-8.045-2.511-12.587s0.923-8.868 2.592-12.802l-0.081 0.215c1.587-3.686 3.994-7.049 7.083-9.899 3.106-2.714 6.827-4.813 10.923-6.195 4.221-1.462 9.086-2.307 14.148-2.307s9.927 0.844 14.462 2.4l-0.313-0.093c4.13 1.451 7.868 3.635 10.974 6.417 3.072 2.816 5.461 6.144 7.031 9.745 1.724 4.062 2.577 8.346 2.509 12.663zM719.053 820.122c0.003-0.158 0.005-0.343 0.005-0.53 0-3.449-0.653-6.746-1.843-9.772l0.063 0.181c-2.263-5.822-6.899-10.29-12.688-12.278l-0.146-0.044c-3.069-1.051-6.605-1.657-10.283-1.657s-7.214 0.606-10.513 1.725l0.231-0.068c-3.058 1.086-5.681 2.715-7.879 4.789l0.011-0.010c-2.175 2.062-3.89 4.588-4.987 7.422l-0.047 0.139c-1.124 3.005-1.775 6.478-1.775 10.103s0.651 7.098 1.841 10.309l-0.067-0.205c2.262 5.836 6.932 10.304 12.757 12.246l0.146 0.042c6.622 2.167 13.926 2.167 20.565 0 2.987-1.041 5.666-2.662 7.851-4.727 2.236-2.202 3.925-4.779 4.983-7.561 1.246-3.243 1.843-6.673 1.775-10.103zM802.15 830.72l0.99 2.253c0.358-0.802 0.683-1.536 1.058-2.253 0.415-0.878 0.819-1.605 1.262-2.304l-0.051 0.085 23.774-37.564c0.478-0.649 0.887-1.058 1.365-1.178 0.489-0.135 1.051-0.213 1.631-0.213 0.111 0 0.22 0.003 0.33 0.008l-0.015-0.001h7.031v61.099h-8.329v-46.814c-0.022-0.316-0.035-0.686-0.035-1.058s0.013-0.742 0.038-1.108l-0.003 0.049-23.945 38.093c-0.329 0.589-0.806 1.060-1.381 1.373l-0.018 0.009c-0.58 0.322-1.273 0.512-2.010 0.512-0.014 0-0.027 0-0.041 0h-1.346c-0.015 0-0.033 0-0.051 0-0.732 0-1.421-0.19-2.018-0.523l0.021 0.011c-0.589-0.322-1.060-0.794-1.373-1.365l-0.009-0.018-24.627-38.332v49.033h-8.038v-60.962h7.014c0.098-0.005 0.213-0.008 0.329-0.008 0.581 0 1.144 0.078 1.679 0.224l-0.045-0.010c0.58 0.256 1.024 0.666 1.297 1.178l24.286 37.598c0.439 0.629 0.844 1.346 1.179 2.102l0.033 0.083zM891.631 827.682v22.869h-9.284v-60.996h20.753c3.925-0.068 7.817 0.393 11.588 1.331 3.004 0.751 5.803 2.048 8.192 3.806 1.985 1.574 3.562 3.577 4.602 5.874l0.040 0.099c1.109 2.492 1.638 5.154 1.587 7.817 0.003 0.112 0.004 0.244 0.004 0.377 0 5.511-2.63 10.407-6.704 13.502l-0.042 0.030c-2.389 1.826-5.205 3.209-8.243 4.028-3.14 0.904-6.747 1.423-10.475 1.423-0.259 0-0.518-0.003-0.776-0.008l-11.225-0.17zM891.631 821.129h11.264c2.441 0.034 4.881-0.29 7.219-0.922 1.993-0.587 3.727-1.486 5.242-2.655l-0.037 0.027c2.614-2.163 4.268-5.408 4.268-9.040 0-0.050 0-0.1-0.001-0.15v0.008c0.013-0.196 0.021-0.426 0.021-0.657 0-1.563-0.347-3.045-0.969-4.373l0.027 0.063c-0.783-1.657-1.878-3.048-3.222-4.148l-0.021-0.017c-3.109-2.087-6.935-3.331-11.053-3.331-0.519 0-1.033 0.020-1.542 0.059l0.068-0.004h-11.264v25.139zM1016.713 850.637h-7.339c-0.042 0.002-0.091 0.003-0.14 0.003-0.71 0-1.37-0.211-1.921-0.574l0.013 0.008c-0.519-0.363-0.936-0.84-1.219-1.395l-0.010-0.021-6.315-14.746h-31.795l-6.554 14.746c-0.578 1.182-1.772 1.981-3.152 1.981-0.032 0-0.063 0-0.095-0.001h-7.368l27.921-61.099h9.677l28.297 61.099zM970.633 827.955h26.249l-11.059-24.866c-0.853-1.877-1.536-3.789-2.099-5.734l-1.075 3.191c-0.324 0.973-0.683 1.877-1.024 2.594l-10.974 24.815zM1056.922 789.845c0.546 0.256 1.024 0.631 1.382 1.075l40.721 46.063v-47.428h8.329v61.099h-4.642c-0.031 0.001-0.068 0.001-0.104 0.001-0.654 0-1.275-0.139-1.836-0.388l0.029 0.011c-0.585-0.292-1.082-0.67-1.499-1.123l-0.003-0.004-40.653-46.012c0.021 0.314 0.033 0.68 0.033 1.050s-0.012 0.736-0.036 1.099l0.003-0.049v45.397h-8.329v-61.099h4.932c0.563 0 1.143 0.102 1.673 0.29zM1175.945 826.351v24.252h-9.301v-24.235l-25.737-36.796h8.329c0.061-0.004 0.132-0.006 0.204-0.006 0.665 0 1.285 0.193 1.807 0.526l-0.014-0.008c0.512 0.41 0.939 0.87 1.263 1.382l16.094 23.74c0.649 1.024 1.212 1.946 1.673 2.833 0.478 0.887 0.853 1.741 1.178 2.577l1.195-2.628c0.461-0.956 0.99-1.877 1.587-2.782l15.872-23.893c0.345-0.494 0.739-0.921 1.184-1.288l0.011-0.009c0.508-0.376 1.147-0.602 1.838-0.602 0.062 0 0.123 0.002 0.184 0.005h8.406l-25.771 36.949zM797.542 687.036c4.045 0.444 8.141 0.802 12.288 1.126 62.788-24.405 115.9-64.341 152.713-114.825 36.796-50.483 55.654-109.278 54.221-169.028l-69.188-60.109c14.063 63.607 7.475 129.365-19.012 189.918-26.505 60.553-71.851 113.493-131.021 152.917z"></path>
<path fill="#afb1b8" d="M772.847 684.237l1.86 0.341c63.215-39.305 111.394-94.157 138.342-157.491s31.403-132.25 12.8-197.803l-98.56-85.623c39.851 70.383 55.91 149.163 46.251 227.157-9.626 77.995-44.544 151.996-100.693 213.419zM1107.081 474.897c-16.742 65.655-57.412 124.86-115.951 168.841-15.991 12.168-34.036 23.579-53.043 33.387l-2.065 0.969c47.684-12.169 91.494-33.69 128.085-62.908s64.973-65.348 82.944-105.591l-39.97-34.697z"></path>
<path fill="#afb1b8" d="M1091.396 465.237l-56.9-49.442c-1.092 56.371-19.541 111.462-53.419 159.539-33.894 48.094-81.988 87.415-139.264 113.886h0.273c12.766 0 25.515-0.683 38.195-1.98 53.538-18.995 100.847-49.203 137.677-87.945 36.847-38.741 62.071-84.787 73.438-134.059zM781.073 207.531l-67.891-59.051c-60.689 20.378-112.879 56.201-149.76 102.775-36.864 46.592-56.695 101.734-56.883 158.276 0.222 62.464 24.422 123.085 68.779 172.254 44.322 49.152 106.274 84.087 176.026 99.226 62.259-65.911 98.731-147.354 104.073-232.499 5.342-85.163-20.702-169.557-74.342-240.981zM1248.256 456.141c-0.239-74.103-34.236-145.118-94.549-197.53-60.314-52.395-142.063-81.937-227.362-82.159-0.202 0-0.441-0.001-0.68-0.001-40.99 0-80.386 6.823-117.115 19.394l2.544-0.757 415.659 361.165c13.549-29.423 21.466-63.839 21.504-100.099v-0.014z"></path>
</svg>
