<!-- Generated by IcoMoon.io -->
<svg version="1.1" xmlns="http://www.w3.org/2000/svg" width="1809" height="1024" viewBox="0 0 1809 1024">
<title>antenna</title>
<g id="icomoon-ignore">
</g>
<path fill="#afb1b8" d="M648.533 119.467l119.603 113.22-222.003-0.137v549.342h580.267v-210.039l119.467 113.101v-565.487h-597.333zM1121.143 558.558l-339.115-321.024h339.115v321.024zM1015.859 701.525h-377.907v-369.425h26.709v344.422h351.198v25.003zM727.211 855.040h11.657l-20.326 38.332v22.34h-10.581v-22.34l-20.378-38.332h11.708l13.961 28.757 13.961-28.757zM744.755 915.712l4.915-14.131h23.501l4.949 14.131h11.008l-22.955-60.672h-9.472l-22.903 60.672h10.957zM761.412 867.925l8.789 25.156h-17.579l8.789-25.173zM816.998 891.614c1.519-2.355 4.54-5.137 9.028-8.363-2.338-2.97-3.994-5.495-4.949-7.578-0.905-2.099-1.365-4.096-1.365-6.042 0-4.762 1.434-8.499 4.335-11.264 2.884-2.765 6.775-4.164 11.657-4.164l-0.030 0.001c0.209-0.009 0.42-0.013 0.631-0.013 3.944 0 7.539 1.495 10.236 3.937l0.014 0.012c2.599 2.289 4.238 5.642 4.238 9.377 0 0.083-0.001 0.166-0.002 0.236v-0.005c0 0.035 0 0.070 0 0.105 0 2.547-0.711 4.929-1.912 6.897l-0.052 0.082c-1.639 2.44-3.735 4.547-6.246 6.25l-4.13 3.004 11.708 13.824c1.69-3.328 2.543-7.031 2.543-11.127h8.789c0 7.475-1.741 13.602-5.239 18.381l8.909 10.547h-11.742l-3.413-4.045c-4.335 3.243-9.506 4.881-15.514 4.881-5.99 0-10.803-1.587-14.404-4.762-3.584-3.191-5.376-7.339-5.376-12.459v0.005c0-0.034 0-0.068 0-0.101 0-2.831 0.854-5.462 2.287-7.601zM844.373 905.045l-13.244-15.633-1.297 0.922c-3.328 2.526-5.001 5.427-5.001 8.67l0.001-0.017c-0.005 0.118-0.007 0.237-0.007 0.356 0 2.539 1.041 4.836 2.72 6.487l-0.007-0.006c1.779 1.643 4.158 2.646 6.771 2.646 0.172 0 0.343-0.004 0.489-0.012h0.006c3.635-0.027 6.972-1.31 9.568-3.413zM833.502 878.165l4.625-3.174 1.306-1.032c1.576-1.377 2.572-3.401 2.572-5.658 0-0.078-0.001-0.156-0.003-0.223 0-1.57-0.597-2.918-1.792-4.045l0.003 0.003c-1.13-1.063-2.651-1.713-4.325-1.713-0.077 0-0.153 0.001-0.218 0.004h0.012c-0.087-0.004-0.174-0.006-0.261-0.006-1.775 0-3.368 0.778-4.462 2.019-1.161 1.331-1.758 3.004-1.758 5.035 0 2.338 1.434 5.257 4.301 8.789zM932.25 911.121c-4.164 3.618-9.711 5.41-16.623 5.41-4.83 0-9.097-1.126-12.8-3.413-3.652-2.304-6.485-5.564-8.499-9.779-1.997-4.233-3.038-9.131-3.123-14.711v-5.666l0.001 0.037c-0.005-0.248-0.008-0.496-0.008-0.745 0-5.224 1.128-10.186 3.062-14.43l0.059-0.144c1.843-4.059 4.832-7.486 8.645-9.925 3.806-2.355 8.192-3.55 13.158-3.55 6.707 0 12.083 1.826 16.179 5.461 4.079 3.635 6.434 8.772 7.117 15.411h-10.496c-0.512-4.352-1.792-7.492-3.84-9.421-2.031-1.929-5.018-2.901-8.96-2.901-4.574 0-8.107 1.673-10.581 5.035-2.441 3.345-3.686 8.226-3.755 14.711v5.359c0 6.571 1.178 11.571 3.516 15.019 2.355 3.447 5.803 5.171 10.325 5.171 4.13 0 7.253-0.922 9.335-2.799 2.082-1.86 3.396-4.949 3.959-9.284h10.496c-0.614 6.451-3.004 11.52-7.168 15.155zM994.202 902.622c2.048-4.506 3.089-9.728 3.089-15.667v-3.362c0.004-0.193 0.006-0.42 0.006-0.648 0-5.395-1.165-10.518-3.257-15.13l0.094 0.23c-1.928-4.283-4.979-7.773-8.78-10.184l-0.094-0.056c-3.823-2.389-8.192-3.584-13.141-3.584s-9.318 1.195-13.158 3.618c-3.806 2.389-6.758 5.837-8.875 10.377-1.978 4.391-3.131 9.52-3.131 14.917 0 0.264 0.003 0.527 0.008 0.789l-0.001-0.039v3.413c0.034 5.803 1.075 10.923 3.157 15.36 2.116 4.454 5.086 7.885 8.926 10.308 3.857 2.389 8.243 3.584 13.158 3.584 4.983 0 9.37-1.195 13.175-3.584 3.823-2.423 6.775-5.871 8.823-10.342zM982.921 868.318c2.56 3.584 3.823 8.755 3.823 15.479v3.157c0 6.827-1.263 12.032-3.789 15.582-2.492 3.567-6.076 5.342-10.752 5.342-0.13 0.005-0.282 0.008-0.435 0.008-4.293 0-8.084-2.148-10.358-5.427l-0.027-0.042c-2.594-3.635-3.874-8.789-3.874-15.462v-3.499c0.051-6.519 1.365-11.571 3.908-15.121 2.282-3.271 6.026-5.384 10.264-5.384 0.154 0 0.307 0.003 0.459 0.008l-0.022-0.001c4.676 0 8.277 1.792 10.803 5.376z"></path>
</svg>
